<mxfile host="65bd71144e">
    <diagram id="Aw8sBbphpgEg-2AwFcPY" name="PÃ¡gina-1">
        <mxGraphModel dx="220" dy="159" grid="1" gridSize="10" guides="1" tooltips="1" connect="1" arrows="1" fold="1" page="1" pageScale="1" pageWidth="827" pageHeight="1169" math="0" shadow="0">
            <root>
                <mxCell id="0"/>
                <mxCell id="1" parent="0"/>
                <mxCell id="_kDXr00UrChoT9V5yPZt-97" style="edgeStyle=orthogonalEdgeStyle;rounded=1;orthogonalLoop=1;jettySize=auto;html=1;startArrow=ERmandOne;startFill=0;endArrow=ERmany;endFill=0;" parent="1" source="_kDXr00UrChoT9V5yPZt-7" target="_kDXr00UrChoT9V5yPZt-44" edge="1">
                    <mxGeometry relative="1" as="geometry"/>
                </mxCell>
                <mxCell id="_kDXr00UrChoT9V5yPZt-7" value="Game" style="swimlane;fontStyle=1;align=center;verticalAlign=top;childLayout=stackLayout;horizontal=1;startSize=20;horizontalStack=0;resizeParent=1;resizeParentMax=0;resizeLast=0;collapsible=1;marginBottom=0;fontSize=11;spacing=-2;" parent="1" vertex="1">
                    <mxGeometry x="40" y="40" width="130" height="120" as="geometry"/>
                </mxCell>
                <mxCell id="_kDXr00UrChoT9V5yPZt-8" value="" style="shape=table;startSize=0;container=1;collapsible=0;childLayout=tableLayout;strokeColor=none;" parent="_kDXr00UrChoT9V5yPZt-7" vertex="1">
                    <mxGeometry y="20" width="130" height="100" as="geometry"/>
                </mxCell>
                <mxCell id="_kDXr00UrChoT9V5yPZt-9" value="" style="shape=partialRectangle;collapsible=0;dropTarget=0;pointerEvents=0;fillColor=none;top=0;left=0;bottom=0;right=0;points=[[0,0.5],[1,0.5]];portConstraint=eastwest;strokeColor=none;" parent="_kDXr00UrChoT9V5yPZt-8" vertex="1">
                    <mxGeometry width="130" height="20" as="geometry"/>
                </mxCell>
                <mxCell id="_kDXr00UrChoT9V5yPZt-10" value="PK" style="shape=partialRectangle;html=1;whiteSpace=wrap;connectable=0;overflow=hidden;fillColor=none;top=0;left=0;bottom=0;right=0;pointerEvents=1;strokeColor=none;" parent="_kDXr00UrChoT9V5yPZt-9" vertex="1">
                    <mxGeometry width="20" height="20" as="geometry">
                        <mxRectangle width="20" height="20" as="alternateBounds"/>
                    </mxGeometry>
                </mxCell>
                <mxCell id="_kDXr00UrChoT9V5yPZt-11" value="id" style="shape=partialRectangle;html=1;whiteSpace=wrap;connectable=0;overflow=hidden;fillColor=none;top=0;left=0;bottom=0;right=0;pointerEvents=1;strokeColor=none;align=left;" parent="_kDXr00UrChoT9V5yPZt-9" vertex="1">
                    <mxGeometry x="20" width="110" height="20" as="geometry">
                        <mxRectangle width="110" height="20" as="alternateBounds"/>
                    </mxGeometry>
                </mxCell>
                <mxCell id="_kDXr00UrChoT9V5yPZt-12" value="" style="shape=partialRectangle;collapsible=0;dropTarget=0;pointerEvents=0;fillColor=none;top=0;left=0;bottom=0;right=0;points=[[0,0.5],[1,0.5]];portConstraint=eastwest;strokeColor=none;" parent="_kDXr00UrChoT9V5yPZt-8" vertex="1">
                    <mxGeometry y="20" width="130" height="20" as="geometry"/>
                </mxCell>
                <mxCell id="_kDXr00UrChoT9V5yPZt-13" value="" style="shape=partialRectangle;html=1;whiteSpace=wrap;connectable=0;overflow=hidden;fillColor=none;top=0;left=0;bottom=0;right=0;pointerEvents=1;strokeColor=none;" parent="_kDXr00UrChoT9V5yPZt-12" vertex="1">
                    <mxGeometry width="20" height="20" as="geometry">
                        <mxRectangle width="20" height="20" as="alternateBounds"/>
                    </mxGeometry>
                </mxCell>
                <mxCell id="_kDXr00UrChoT9V5yPZt-14" value="name" style="shape=partialRectangle;html=1;whiteSpace=wrap;connectable=0;overflow=hidden;fillColor=none;top=0;left=0;bottom=0;right=0;pointerEvents=1;strokeColor=none;align=left;" parent="_kDXr00UrChoT9V5yPZt-12" vertex="1">
                    <mxGeometry x="20" width="110" height="20" as="geometry">
                        <mxRectangle width="110" height="20" as="alternateBounds"/>
                    </mxGeometry>
                </mxCell>
                <mxCell id="_kDXr00UrChoT9V5yPZt-15" style="shape=partialRectangle;collapsible=0;dropTarget=0;pointerEvents=0;fillColor=none;top=0;left=0;bottom=0;right=0;points=[[0,0.5],[1,0.5]];portConstraint=eastwest;strokeColor=none;" parent="_kDXr00UrChoT9V5yPZt-8" vertex="1">
                    <mxGeometry y="40" width="130" height="20" as="geometry"/>
                </mxCell>
                <mxCell id="_kDXr00UrChoT9V5yPZt-16" style="shape=partialRectangle;html=1;whiteSpace=wrap;connectable=0;overflow=hidden;fillColor=none;top=0;left=0;bottom=0;right=0;pointerEvents=1;strokeColor=none;" parent="_kDXr00UrChoT9V5yPZt-15" vertex="1">
                    <mxGeometry width="20" height="20" as="geometry">
                        <mxRectangle width="20" height="20" as="alternateBounds"/>
                    </mxGeometry>
                </mxCell>
                <mxCell id="_kDXr00UrChoT9V5yPZt-17" value="width" style="shape=partialRectangle;html=1;whiteSpace=wrap;connectable=0;overflow=hidden;fillColor=none;top=0;left=0;bottom=0;right=0;pointerEvents=1;strokeColor=none;align=left;" parent="_kDXr00UrChoT9V5yPZt-15" vertex="1">
                    <mxGeometry x="20" width="110" height="20" as="geometry">
                        <mxRectangle width="110" height="20" as="alternateBounds"/>
                    </mxGeometry>
                </mxCell>
                <mxCell id="_kDXr00UrChoT9V5yPZt-24" style="shape=partialRectangle;collapsible=0;dropTarget=0;pointerEvents=0;fillColor=none;top=0;left=0;bottom=0;right=0;points=[[0,0.5],[1,0.5]];portConstraint=eastwest;strokeColor=none;" parent="_kDXr00UrChoT9V5yPZt-8" vertex="1">
                    <mxGeometry y="60" width="130" height="20" as="geometry"/>
                </mxCell>
                <mxCell id="_kDXr00UrChoT9V5yPZt-25" style="shape=partialRectangle;html=1;whiteSpace=wrap;connectable=0;overflow=hidden;fillColor=none;top=0;left=0;bottom=0;right=0;pointerEvents=1;strokeColor=none;" parent="_kDXr00UrChoT9V5yPZt-24" vertex="1">
                    <mxGeometry width="20" height="20" as="geometry">
                        <mxRectangle width="20" height="20" as="alternateBounds"/>
                    </mxGeometry>
                </mxCell>
                <mxCell id="_kDXr00UrChoT9V5yPZt-26" value="height" style="shape=partialRectangle;html=1;whiteSpace=wrap;connectable=0;overflow=hidden;fillColor=none;top=0;left=0;bottom=0;right=0;pointerEvents=1;strokeColor=none;align=left;" parent="_kDXr00UrChoT9V5yPZt-24" vertex="1">
                    <mxGeometry x="20" width="110" height="20" as="geometry">
                        <mxRectangle width="110" height="20" as="alternateBounds"/>
                    </mxGeometry>
                </mxCell>
                <mxCell id="_kDXr00UrChoT9V5yPZt-21" style="shape=partialRectangle;collapsible=0;dropTarget=0;pointerEvents=0;fillColor=none;top=0;left=0;bottom=0;right=0;points=[[0,0.5],[1,0.5]];portConstraint=eastwest;strokeColor=none;" parent="_kDXr00UrChoT9V5yPZt-8" vertex="1">
                    <mxGeometry y="80" width="130" height="20" as="geometry"/>
                </mxCell>
                <mxCell id="_kDXr00UrChoT9V5yPZt-22" style="shape=partialRectangle;html=1;whiteSpace=wrap;connectable=0;overflow=hidden;fillColor=none;top=0;left=0;bottom=0;right=0;pointerEvents=1;strokeColor=none;" parent="_kDXr00UrChoT9V5yPZt-21" vertex="1">
                    <mxGeometry width="20" height="20" as="geometry">
                        <mxRectangle width="20" height="20" as="alternateBounds"/>
                    </mxGeometry>
                </mxCell>
                <mxCell id="_kDXr00UrChoT9V5yPZt-23" value="userId" style="shape=partialRectangle;html=1;whiteSpace=wrap;connectable=0;overflow=hidden;fillColor=none;top=0;left=0;bottom=0;right=0;pointerEvents=1;strokeColor=none;align=left;" parent="_kDXr00UrChoT9V5yPZt-21" vertex="1">
                    <mxGeometry x="20" width="110" height="20" as="geometry">
                        <mxRectangle width="110" height="20" as="alternateBounds"/>
                    </mxGeometry>
                </mxCell>
                <mxCell id="_kDXr00UrChoT9V5yPZt-27" value="Tiles" style="swimlane;fontStyle=1;align=center;verticalAlign=top;childLayout=stackLayout;horizontal=1;startSize=20;horizontalStack=0;resizeParent=1;resizeParentMax=0;resizeLast=0;collapsible=1;marginBottom=0;fontSize=11;spacing=-2;" parent="1" vertex="1">
                    <mxGeometry x="210" y="40" width="130" height="100" as="geometry"/>
                </mxCell>
                <mxCell id="_kDXr00UrChoT9V5yPZt-28" value="" style="shape=table;startSize=0;container=1;collapsible=0;childLayout=tableLayout;strokeColor=none;" parent="_kDXr00UrChoT9V5yPZt-27" vertex="1">
                    <mxGeometry y="20" width="130" height="80" as="geometry"/>
                </mxCell>
                <mxCell id="_kDXr00UrChoT9V5yPZt-29" value="" style="shape=partialRectangle;collapsible=0;dropTarget=0;pointerEvents=0;fillColor=none;top=0;left=0;bottom=0;right=0;points=[[0,0.5],[1,0.5]];portConstraint=eastwest;strokeColor=none;" parent="_kDXr00UrChoT9V5yPZt-28" vertex="1">
                    <mxGeometry width="130" height="20" as="geometry"/>
                </mxCell>
                <mxCell id="_kDXr00UrChoT9V5yPZt-30" value="PK" style="shape=partialRectangle;html=1;whiteSpace=wrap;connectable=0;overflow=hidden;fillColor=none;top=0;left=0;bottom=0;right=0;pointerEvents=1;strokeColor=none;" parent="_kDXr00UrChoT9V5yPZt-29" vertex="1">
                    <mxGeometry width="20" height="20" as="geometry">
                        <mxRectangle width="20" height="20" as="alternateBounds"/>
                    </mxGeometry>
                </mxCell>
                <mxCell id="_kDXr00UrChoT9V5yPZt-31" value="id" style="shape=partialRectangle;html=1;whiteSpace=wrap;connectable=0;overflow=hidden;fillColor=none;top=0;left=0;bottom=0;right=0;pointerEvents=1;strokeColor=none;align=left;" parent="_kDXr00UrChoT9V5yPZt-29" vertex="1">
                    <mxGeometry x="20" width="110" height="20" as="geometry">
                        <mxRectangle width="110" height="20" as="alternateBounds"/>
                    </mxGeometry>
                </mxCell>
                <mxCell id="_kDXr00UrChoT9V5yPZt-32" value="" style="shape=partialRectangle;collapsible=0;dropTarget=0;pointerEvents=0;fillColor=none;top=0;left=0;bottom=0;right=0;points=[[0,0.5],[1,0.5]];portConstraint=eastwest;strokeColor=none;" parent="_kDXr00UrChoT9V5yPZt-28" vertex="1">
                    <mxGeometry y="20" width="130" height="20" as="geometry"/>
                </mxCell>
                <mxCell id="_kDXr00UrChoT9V5yPZt-33" value="" style="shape=partialRectangle;html=1;whiteSpace=wrap;connectable=0;overflow=hidden;fillColor=none;top=0;left=0;bottom=0;right=0;pointerEvents=1;strokeColor=none;" parent="_kDXr00UrChoT9V5yPZt-32" vertex="1">
                    <mxGeometry width="20" height="20" as="geometry">
                        <mxRectangle width="20" height="20" as="alternateBounds"/>
                    </mxGeometry>
                </mxCell>
                <mxCell id="_kDXr00UrChoT9V5yPZt-34" value="turnNumber" style="shape=partialRectangle;html=1;whiteSpace=wrap;connectable=0;overflow=hidden;fillColor=none;top=0;left=0;bottom=0;right=0;pointerEvents=1;strokeColor=none;align=left;" parent="_kDXr00UrChoT9V5yPZt-32" vertex="1">
                    <mxGeometry x="20" width="110" height="20" as="geometry">
                        <mxRectangle width="110" height="20" as="alternateBounds"/>
                    </mxGeometry>
                </mxCell>
                <mxCell id="_kDXr00UrChoT9V5yPZt-35" style="shape=partialRectangle;collapsible=0;dropTarget=0;pointerEvents=0;fillColor=none;top=0;left=0;bottom=0;right=0;points=[[0,0.5],[1,0.5]];portConstraint=eastwest;strokeColor=none;" parent="_kDXr00UrChoT9V5yPZt-28" vertex="1">
                    <mxGeometry y="40" width="130" height="20" as="geometry"/>
                </mxCell>
                <mxCell id="_kDXr00UrChoT9V5yPZt-36" style="shape=partialRectangle;html=1;whiteSpace=wrap;connectable=0;overflow=hidden;fillColor=none;top=0;left=0;bottom=0;right=0;pointerEvents=1;strokeColor=none;" parent="_kDXr00UrChoT9V5yPZt-35" vertex="1">
                    <mxGeometry width="20" height="20" as="geometry">
                        <mxRectangle width="20" height="20" as="alternateBounds"/>
                    </mxGeometry>
                </mxCell>
                <mxCell id="_kDXr00UrChoT9V5yPZt-37" value="data" style="shape=partialRectangle;html=1;whiteSpace=wrap;connectable=0;overflow=hidden;fillColor=none;top=0;left=0;bottom=0;right=0;pointerEvents=1;strokeColor=none;align=left;" parent="_kDXr00UrChoT9V5yPZt-35" vertex="1">
                    <mxGeometry x="20" width="110" height="20" as="geometry">
                        <mxRectangle width="110" height="20" as="alternateBounds"/>
                    </mxGeometry>
                </mxCell>
                <mxCell id="_kDXr00UrChoT9V5yPZt-38" style="shape=partialRectangle;collapsible=0;dropTarget=0;pointerEvents=0;fillColor=none;top=0;left=0;bottom=0;right=0;points=[[0,0.5],[1,0.5]];portConstraint=eastwest;strokeColor=none;" parent="_kDXr00UrChoT9V5yPZt-28" vertex="1">
                    <mxGeometry y="60" width="130" height="20" as="geometry"/>
                </mxCell>
                <mxCell id="_kDXr00UrChoT9V5yPZt-39" style="shape=partialRectangle;html=1;whiteSpace=wrap;connectable=0;overflow=hidden;fillColor=none;top=0;left=0;bottom=0;right=0;pointerEvents=1;strokeColor=none;" parent="_kDXr00UrChoT9V5yPZt-38" vertex="1">
                    <mxGeometry width="20" height="20" as="geometry">
                        <mxRectangle width="20" height="20" as="alternateBounds"/>
                    </mxGeometry>
                </mxCell>
                <mxCell id="_kDXr00UrChoT9V5yPZt-40" value="gameId" style="shape=partialRectangle;html=1;whiteSpace=wrap;connectable=0;overflow=hidden;fillColor=none;top=0;left=0;bottom=0;right=0;pointerEvents=1;strokeColor=none;align=left;" parent="_kDXr00UrChoT9V5yPZt-38" vertex="1">
                    <mxGeometry x="20" width="110" height="20" as="geometry">
                        <mxRectangle width="110" height="20" as="alternateBounds"/>
                    </mxGeometry>
                </mxCell>
                <mxCell id="_kDXr00UrChoT9V5yPZt-44" value="User" style="swimlane;fontStyle=1;align=center;verticalAlign=top;childLayout=stackLayout;horizontal=1;startSize=20;horizontalStack=0;resizeParent=1;resizeParentMax=0;resizeLast=0;collapsible=1;marginBottom=0;fontSize=11;spacing=-2;" parent="1" vertex="1">
                    <mxGeometry x="40" y="200" width="130" height="100" as="geometry"/>
                </mxCell>
                <mxCell id="_kDXr00UrChoT9V5yPZt-45" value="" style="shape=table;startSize=0;container=1;collapsible=0;childLayout=tableLayout;strokeColor=none;" parent="_kDXr00UrChoT9V5yPZt-44" vertex="1">
                    <mxGeometry y="20" width="130" height="80" as="geometry"/>
                </mxCell>
                <mxCell id="_kDXr00UrChoT9V5yPZt-46" value="" style="shape=partialRectangle;collapsible=0;dropTarget=0;pointerEvents=0;fillColor=none;top=0;left=0;bottom=0;right=0;points=[[0,0.5],[1,0.5]];portConstraint=eastwest;strokeColor=none;" parent="_kDXr00UrChoT9V5yPZt-45" vertex="1">
                    <mxGeometry width="130" height="20" as="geometry"/>
                </mxCell>
                <mxCell id="_kDXr00UrChoT9V5yPZt-47" value="PK" style="shape=partialRectangle;html=1;whiteSpace=wrap;connectable=0;overflow=hidden;fillColor=none;top=0;left=0;bottom=0;right=0;pointerEvents=1;strokeColor=none;" parent="_kDXr00UrChoT9V5yPZt-46" vertex="1">
                    <mxGeometry width="20" height="20" as="geometry">
                        <mxRectangle width="20" height="20" as="alternateBounds"/>
                    </mxGeometry>
                </mxCell>
                <mxCell id="_kDXr00UrChoT9V5yPZt-48" value="id" style="shape=partialRectangle;html=1;whiteSpace=wrap;connectable=0;overflow=hidden;fillColor=none;top=0;left=0;bottom=0;right=0;pointerEvents=1;strokeColor=none;align=left;" parent="_kDXr00UrChoT9V5yPZt-46" vertex="1">
                    <mxGeometry x="20" width="110" height="20" as="geometry">
                        <mxRectangle width="110" height="20" as="alternateBounds"/>
                    </mxGeometry>
                </mxCell>
                <mxCell id="_kDXr00UrChoT9V5yPZt-49" value="" style="shape=partialRectangle;collapsible=0;dropTarget=0;pointerEvents=0;fillColor=none;top=0;left=0;bottom=0;right=0;points=[[0,0.5],[1,0.5]];portConstraint=eastwest;strokeColor=none;" parent="_kDXr00UrChoT9V5yPZt-45" vertex="1">
                    <mxGeometry y="20" width="130" height="20" as="geometry"/>
                </mxCell>
                <mxCell id="_kDXr00UrChoT9V5yPZt-50" value="" style="shape=partialRectangle;html=1;whiteSpace=wrap;connectable=0;overflow=hidden;fillColor=none;top=0;left=0;bottom=0;right=0;pointerEvents=1;strokeColor=none;" parent="_kDXr00UrChoT9V5yPZt-49" vertex="1">
                    <mxGeometry width="20" height="20" as="geometry">
                        <mxRectangle width="20" height="20" as="alternateBounds"/>
                    </mxGeometry>
                </mxCell>
                <mxCell id="_kDXr00UrChoT9V5yPZt-51" value="name" style="shape=partialRectangle;html=1;whiteSpace=wrap;connectable=0;overflow=hidden;fillColor=none;top=0;left=0;bottom=0;right=0;pointerEvents=1;strokeColor=none;align=left;" parent="_kDXr00UrChoT9V5yPZt-49" vertex="1">
                    <mxGeometry x="20" width="110" height="20" as="geometry">
                        <mxRectangle width="110" height="20" as="alternateBounds"/>
                    </mxGeometry>
                </mxCell>
                <mxCell id="_kDXr00UrChoT9V5yPZt-52" style="shape=partialRectangle;collapsible=0;dropTarget=0;pointerEvents=0;fillColor=none;top=0;left=0;bottom=0;right=0;points=[[0,0.5],[1,0.5]];portConstraint=eastwest;strokeColor=none;" parent="_kDXr00UrChoT9V5yPZt-45" vertex="1">
                    <mxGeometry y="40" width="130" height="20" as="geometry"/>
                </mxCell>
                <mxCell id="_kDXr00UrChoT9V5yPZt-53" style="shape=partialRectangle;html=1;whiteSpace=wrap;connectable=0;overflow=hidden;fillColor=none;top=0;left=0;bottom=0;right=0;pointerEvents=1;strokeColor=none;" parent="_kDXr00UrChoT9V5yPZt-52" vertex="1">
                    <mxGeometry width="20" height="20" as="geometry">
                        <mxRectangle width="20" height="20" as="alternateBounds"/>
                    </mxGeometry>
                </mxCell>
                <mxCell id="_kDXr00UrChoT9V5yPZt-54" value="username" style="shape=partialRectangle;html=1;whiteSpace=wrap;connectable=0;overflow=hidden;fillColor=none;top=0;left=0;bottom=0;right=0;pointerEvents=1;strokeColor=none;align=left;" parent="_kDXr00UrChoT9V5yPZt-52" vertex="1">
                    <mxGeometry x="20" width="110" height="20" as="geometry">
                        <mxRectangle width="110" height="20" as="alternateBounds"/>
                    </mxGeometry>
                </mxCell>
                <mxCell id="_kDXr00UrChoT9V5yPZt-55" style="shape=partialRectangle;collapsible=0;dropTarget=0;pointerEvents=0;fillColor=none;top=0;left=0;bottom=0;right=0;points=[[0,0.5],[1,0.5]];portConstraint=eastwest;strokeColor=none;" parent="_kDXr00UrChoT9V5yPZt-45" vertex="1">
                    <mxGeometry y="60" width="130" height="20" as="geometry"/>
                </mxCell>
                <mxCell id="_kDXr00UrChoT9V5yPZt-56" style="shape=partialRectangle;html=1;whiteSpace=wrap;connectable=0;overflow=hidden;fillColor=none;top=0;left=0;bottom=0;right=0;pointerEvents=1;strokeColor=none;" parent="_kDXr00UrChoT9V5yPZt-55" vertex="1">
                    <mxGeometry width="20" height="20" as="geometry">
                        <mxRectangle width="20" height="20" as="alternateBounds"/>
                    </mxGeometry>
                </mxCell>
                <mxCell id="_kDXr00UrChoT9V5yPZt-57" value="password_md5" style="shape=partialRectangle;html=1;whiteSpace=wrap;connectable=0;overflow=hidden;fillColor=none;top=0;left=0;bottom=0;right=0;pointerEvents=1;strokeColor=none;align=left;" parent="_kDXr00UrChoT9V5yPZt-55" vertex="1">
                    <mxGeometry x="20" width="110" height="20" as="geometry">
                        <mxRectangle width="110" height="20" as="alternateBounds"/>
                    </mxGeometry>
                </mxCell>
                <mxCell id="_kDXr00UrChoT9V5yPZt-61" value="PreferenceValue" style="swimlane;fontStyle=1;align=center;verticalAlign=top;childLayout=stackLayout;horizontal=1;startSize=20;horizontalStack=0;resizeParent=1;resizeParentMax=0;resizeLast=0;collapsible=1;marginBottom=0;fontSize=11;spacing=-2;" parent="1" vertex="1">
                    <mxGeometry x="210" y="200" width="130" height="100" as="geometry"/>
                </mxCell>
                <mxCell id="_kDXr00UrChoT9V5yPZt-62" value="" style="shape=table;startSize=0;container=1;collapsible=0;childLayout=tableLayout;strokeColor=none;" parent="_kDXr00UrChoT9V5yPZt-61" vertex="1">
                    <mxGeometry y="20" width="130" height="80" as="geometry"/>
                </mxCell>
                <mxCell id="_kDXr00UrChoT9V5yPZt-63" value="" style="shape=partialRectangle;collapsible=0;dropTarget=0;pointerEvents=0;fillColor=none;top=0;left=0;bottom=0;right=0;points=[[0,0.5],[1,0.5]];portConstraint=eastwest;strokeColor=none;" parent="_kDXr00UrChoT9V5yPZt-62" vertex="1">
                    <mxGeometry width="130" height="20" as="geometry"/>
                </mxCell>
                <mxCell id="_kDXr00UrChoT9V5yPZt-64" value="PK" style="shape=partialRectangle;html=1;whiteSpace=wrap;connectable=0;overflow=hidden;fillColor=none;top=0;left=0;bottom=0;right=0;pointerEvents=1;strokeColor=none;" parent="_kDXr00UrChoT9V5yPZt-63" vertex="1">
                    <mxGeometry width="20" height="20" as="geometry">
                        <mxRectangle width="20" height="20" as="alternateBounds"/>
                    </mxGeometry>
                </mxCell>
                <mxCell id="_kDXr00UrChoT9V5yPZt-65" value="id" style="shape=partialRectangle;html=1;whiteSpace=wrap;connectable=0;overflow=hidden;fillColor=none;top=0;left=0;bottom=0;right=0;pointerEvents=1;strokeColor=none;align=left;" parent="_kDXr00UrChoT9V5yPZt-63" vertex="1">
                    <mxGeometry x="20" width="110" height="20" as="geometry">
                        <mxRectangle width="110" height="20" as="alternateBounds"/>
                    </mxGeometry>
                </mxCell>
                <mxCell id="_kDXr00UrChoT9V5yPZt-66" value="" style="shape=partialRectangle;collapsible=0;dropTarget=0;pointerEvents=0;fillColor=none;top=0;left=0;bottom=0;right=0;points=[[0,0.5],[1,0.5]];portConstraint=eastwest;strokeColor=none;" parent="_kDXr00UrChoT9V5yPZt-62" vertex="1">
                    <mxGeometry y="20" width="130" height="20" as="geometry"/>
                </mxCell>
                <mxCell id="_kDXr00UrChoT9V5yPZt-67" value="FK" style="shape=partialRectangle;html=1;whiteSpace=wrap;connectable=0;overflow=hidden;fillColor=none;top=0;left=0;bottom=0;right=0;pointerEvents=1;strokeColor=none;" parent="_kDXr00UrChoT9V5yPZt-66" vertex="1">
                    <mxGeometry width="20" height="20" as="geometry">
                        <mxRectangle width="20" height="20" as="alternateBounds"/>
                    </mxGeometry>
                </mxCell>
                <mxCell id="_kDXr00UrChoT9V5yPZt-68" value="preferenceId" style="shape=partialRectangle;html=1;whiteSpace=wrap;connectable=0;overflow=hidden;fillColor=none;top=0;left=0;bottom=0;right=0;pointerEvents=1;strokeColor=none;align=left;" parent="_kDXr00UrChoT9V5yPZt-66" vertex="1">
                    <mxGeometry x="20" width="110" height="20" as="geometry">
                        <mxRectangle width="110" height="20" as="alternateBounds"/>
                    </mxGeometry>
                </mxCell>
                <mxCell id="_kDXr00UrChoT9V5yPZt-69" style="shape=partialRectangle;collapsible=0;dropTarget=0;pointerEvents=0;fillColor=none;top=0;left=0;bottom=0;right=0;points=[[0,0.5],[1,0.5]];portConstraint=eastwest;strokeColor=none;" parent="_kDXr00UrChoT9V5yPZt-62" vertex="1">
                    <mxGeometry y="40" width="130" height="20" as="geometry"/>
                </mxCell>
                <mxCell id="_kDXr00UrChoT9V5yPZt-70" style="shape=partialRectangle;html=1;whiteSpace=wrap;connectable=0;overflow=hidden;fillColor=none;top=0;left=0;bottom=0;right=0;pointerEvents=1;strokeColor=none;" parent="_kDXr00UrChoT9V5yPZt-69" vertex="1">
                    <mxGeometry width="20" height="20" as="geometry">
                        <mxRectangle width="20" height="20" as="alternateBounds"/>
                    </mxGeometry>
                </mxCell>
                <mxCell id="_kDXr00UrChoT9V5yPZt-71" value="value" style="shape=partialRectangle;html=1;whiteSpace=wrap;connectable=0;overflow=hidden;fillColor=none;top=0;left=0;bottom=0;right=0;pointerEvents=1;strokeColor=none;align=left;" parent="_kDXr00UrChoT9V5yPZt-69" vertex="1">
                    <mxGeometry x="20" width="110" height="20" as="geometry">
                        <mxRectangle width="110" height="20" as="alternateBounds"/>
                    </mxGeometry>
                </mxCell>
                <mxCell id="_kDXr00UrChoT9V5yPZt-75" style="shape=partialRectangle;collapsible=0;dropTarget=0;pointerEvents=0;fillColor=none;top=0;left=0;bottom=0;right=0;points=[[0,0.5],[1,0.5]];portConstraint=eastwest;strokeColor=none;" parent="_kDXr00UrChoT9V5yPZt-62" vertex="1">
                    <mxGeometry y="60" width="130" height="20" as="geometry"/>
                </mxCell>
                <mxCell id="_kDXr00UrChoT9V5yPZt-76" value="FK" style="shape=partialRectangle;html=1;whiteSpace=wrap;connectable=0;overflow=hidden;fillColor=none;top=0;left=0;bottom=0;right=0;pointerEvents=1;strokeColor=none;" parent="_kDXr00UrChoT9V5yPZt-75" vertex="1">
                    <mxGeometry width="20" height="20" as="geometry">
                        <mxRectangle width="20" height="20" as="alternateBounds"/>
                    </mxGeometry>
                </mxCell>
                <mxCell id="_kDXr00UrChoT9V5yPZt-77" value="userId" style="shape=partialRectangle;html=1;whiteSpace=wrap;connectable=0;overflow=hidden;fillColor=none;top=0;left=0;bottom=0;right=0;pointerEvents=1;strokeColor=none;align=left;" parent="_kDXr00UrChoT9V5yPZt-75" vertex="1">
                    <mxGeometry x="20" width="110" height="20" as="geometry">
                        <mxRectangle width="110" height="20" as="alternateBounds"/>
                    </mxGeometry>
                </mxCell>
                <mxCell id="_kDXr00UrChoT9V5yPZt-78" value="Preference" style="swimlane;fontStyle=1;align=center;verticalAlign=top;childLayout=stackLayout;horizontal=1;startSize=20;horizontalStack=0;resizeParent=1;resizeParentMax=0;resizeLast=0;collapsible=1;marginBottom=0;fontSize=11;spacing=-2;" parent="1" vertex="1">
                    <mxGeometry x="380" y="200" width="130" height="60" as="geometry"/>
                </mxCell>
                <mxCell id="_kDXr00UrChoT9V5yPZt-79" value="" style="shape=table;startSize=0;container=1;collapsible=0;childLayout=tableLayout;strokeColor=none;" parent="_kDXr00UrChoT9V5yPZt-78" vertex="1">
                    <mxGeometry y="20" width="130" height="40" as="geometry"/>
                </mxCell>
                <mxCell id="_kDXr00UrChoT9V5yPZt-80" value="" style="shape=partialRectangle;collapsible=0;dropTarget=0;pointerEvents=0;fillColor=none;top=0;left=0;bottom=0;right=0;points=[[0,0.5],[1,0.5]];portConstraint=eastwest;strokeColor=none;" parent="_kDXr00UrChoT9V5yPZt-79" vertex="1">
                    <mxGeometry width="130" height="20" as="geometry"/>
                </mxCell>
                <mxCell id="_kDXr00UrChoT9V5yPZt-81" value="PK" style="shape=partialRectangle;html=1;whiteSpace=wrap;connectable=0;overflow=hidden;fillColor=none;top=0;left=0;bottom=0;right=0;pointerEvents=1;strokeColor=none;" parent="_kDXr00UrChoT9V5yPZt-80" vertex="1">
                    <mxGeometry width="20" height="20" as="geometry">
                        <mxRectangle width="20" height="20" as="alternateBounds"/>
                    </mxGeometry>
                </mxCell>
                <mxCell id="_kDXr00UrChoT9V5yPZt-82" value="id" style="shape=partialRectangle;html=1;whiteSpace=wrap;connectable=0;overflow=hidden;fillColor=none;top=0;left=0;bottom=0;right=0;pointerEvents=1;strokeColor=none;align=left;" parent="_kDXr00UrChoT9V5yPZt-80" vertex="1">
                    <mxGeometry x="20" width="110" height="20" as="geometry">
                        <mxRectangle width="110" height="20" as="alternateBounds"/>
                    </mxGeometry>
                </mxCell>
                <mxCell id="_kDXr00UrChoT9V5yPZt-83" value="" style="shape=partialRectangle;collapsible=0;dropTarget=0;pointerEvents=0;fillColor=none;top=0;left=0;bottom=0;right=0;points=[[0,0.5],[1,0.5]];portConstraint=eastwest;strokeColor=none;" parent="_kDXr00UrChoT9V5yPZt-79" vertex="1">
                    <mxGeometry y="20" width="130" height="20" as="geometry"/>
                </mxCell>
                <mxCell id="_kDXr00UrChoT9V5yPZt-84" value="" style="shape=partialRectangle;html=1;whiteSpace=wrap;connectable=0;overflow=hidden;fillColor=none;top=0;left=0;bottom=0;right=0;pointerEvents=1;strokeColor=none;" parent="_kDXr00UrChoT9V5yPZt-83" vertex="1">
                    <mxGeometry width="20" height="20" as="geometry">
                        <mxRectangle width="20" height="20" as="alternateBounds"/>
                    </mxGeometry>
                </mxCell>
                <mxCell id="_kDXr00UrChoT9V5yPZt-85" value="name" style="shape=partialRectangle;html=1;whiteSpace=wrap;connectable=0;overflow=hidden;fillColor=none;top=0;left=0;bottom=0;right=0;pointerEvents=1;strokeColor=none;align=left;" parent="_kDXr00UrChoT9V5yPZt-83" vertex="1">
                    <mxGeometry x="20" width="110" height="20" as="geometry">
                        <mxRectangle width="110" height="20" as="alternateBounds"/>
                    </mxGeometry>
                </mxCell>
                <mxCell id="_kDXr00UrChoT9V5yPZt-96" style="edgeStyle=orthogonalEdgeStyle;rounded=1;orthogonalLoop=1;jettySize=auto;html=1;exitX=1;exitY=0.5;exitDx=0;exitDy=0;endArrow=ERmany;endFill=0;startArrow=ERmandOne;startFill=0;" parent="1" source="_kDXr00UrChoT9V5yPZt-9" target="_kDXr00UrChoT9V5yPZt-38" edge="1">
                    <mxGeometry relative="1" as="geometry"/>
                </mxCell>
                <mxCell id="_kDXr00UrChoT9V5yPZt-98" style="edgeStyle=orthogonalEdgeStyle;rounded=1;orthogonalLoop=1;jettySize=auto;html=1;startArrow=ERone;startFill=0;endArrow=ERmany;endFill=0;" parent="1" source="_kDXr00UrChoT9V5yPZt-80" target="_kDXr00UrChoT9V5yPZt-66" edge="1">
                    <mxGeometry relative="1" as="geometry"/>
                </mxCell>
                <mxCell id="_kDXr00UrChoT9V5yPZt-99" style="edgeStyle=orthogonalEdgeStyle;rounded=1;orthogonalLoop=1;jettySize=auto;html=1;entryX=0;entryY=0.5;entryDx=0;entryDy=0;startArrow=ERone;startFill=0;endArrow=ERmany;endFill=0;" parent="1" source="_kDXr00UrChoT9V5yPZt-46" target="_kDXr00UrChoT9V5yPZt-75" edge="1">
                    <mxGeometry relative="1" as="geometry"/>
                </mxCell>
            </root>
        </mxGraphModel>
    </diagram>
</mxfile>